<?xml version="1.0" standalone="no"?>
<!DOCTYPE svg PUBLIC "-//W3C//DTD SVG 20010904//EN"
 "http://www.w3.org/TR/2001/REC-SVG-20010904/DTD/svg10.dtd">
<svg version="1.0" xmlns="http://www.w3.org/2000/svg"
 width="1019.000000pt" height="1019.000000pt" viewBox="0 0 1019.000000 1019.000000"
 preserveAspectRatio="xMidYMid meet">

<g transform="translate(0.000000,1019.000000) scale(0.100000,-0.100000)"
fill="#000000" stroke="none">
<path d="M4750 10179 c-1953 -132 -3661 -1378 -4391 -3205 -721 -1807 -335
-3889 988 -5329 1190 -1294 2982 -1886 4703 -1554 1719 332 3131 1500 3781
3125 635 1591 417 3414 -579 4823 -1021 1445 -2733 2259 -4502 2140z m564
-2485 c211 -53 391 -222 462 -431 36 -104 43 -241 20 -347 -42 -188 -177 -361
-346 -444 -194 -95 -396 -95 -590 -1 -69 34 -101 58 -170 128 -135 136 -190
269 -190 461 0 151 40 272 133 397 79 107 223 202 357 237 75 20 247 20 324 0z
m-1657 -779 c213 -67 382 -247 439 -465 23 -86 22 -235 0 -320 -61 -227 -257
-423 -477 -475 -82 -19 -238 -19 -314 0 -233 59 -421 247 -480 480 -19 76 -19
232 1 315 48 208 226 398 433 465 124 40 272 40 398 0z m3479 4 c168 -51 318
-177 392 -329 55 -112 72 -184 72 -300 0 -181 -62 -333 -191 -461 -62 -63 -93
-85 -170 -122 -113 -54 -169 -67 -296 -67 -117 0 -193 19 -297 73 -149 77
-270 220 -322 381 -31 96 -38 255 -15 346 54 218 203 384 422 471 111 43 278
47 405 8z m-5261 -1915 c44 -17 45 -35 45 -572 l0 -510 51 -51 c48 -48 51 -55
46 -89 -4 -22 -17 -46 -32 -59 -24 -21 -36 -23 -144 -23 -113 0 -118 1 -142
26 -23 25 -24 26 -25 267 -1 268 -6 301 -58 353 -87 87 -230 28 -267 -110 -15
-56 -7 -153 16 -200 33 -66 64 -81 154 -78 72 2 79 0 102 -24 32 -34 34 -109
3 -151 -51 -68 -136 -98 -238 -82 -175 28 -286 193 -286 422 1 287 199 504
428 466 30 -4 65 -15 78 -24 13 -8 35 -22 49 -31 l25 -16 0 91 0 91 -31 0
c-40 0 -89 48 -89 87 1 45 20 68 107 132 122 89 158 104 208 85z m2932 -38
l28 -24 0 -519 c0 -285 4 -524 8 -531 5 -7 26 -21 47 -32 75 -38 92 -100 40
-151 l-30 -30 -194 3 c-217 3 -229 7 -242 74 -8 44 13 77 67 104 22 12 44 31
48 43 5 13 11 193 12 400 l4 377 -33 0 c-70 0 -111 95 -62 148 29 31 175 141
202 152 40 16 76 11 105 -14z m2770 -20 l28 -24 1 -499 c0 -274 2 -509 2 -522
1 -13 22 -43 47 -68 38 -37 45 -50 45 -84 0 -29 -7 -47 -25 -64 -23 -24 -30
-25 -140 -25 -119 0 -146 6 -161 37 -5 10 -11 133 -14 273 -5 240 -6 258 -28
297 -49 93 -165 105 -242 24 -84 -88 -81 -272 5 -351 25 -23 33 -25 110 -22
80 2 84 1 104 -24 29 -37 28 -110 -1 -154 -56 -82 -199 -109 -310 -57 -135 61
-208 200 -208 397 0 148 43 272 125 359 110 117 286 149 400 72 25 -17 48 -31
51 -31 2 0 4 41 4 90 0 90 0 90 -26 90 -54 0 -93 36 -94 87 0 50 7 60 98 126
146 106 178 116 229 73z m-5217 -366 c34 -18 40 -65 40 -312 0 -278 5 -300 70
-319 33 -10 44 -9 82 9 68 34 82 66 86 203 l4 116 -41 7 c-55 8 -81 36 -81 84
1 47 16 65 114 137 127 93 182 104 226 48 19 -24 20 -40 20 -320 0 -205 4
-301 12 -316 6 -12 29 -38 51 -57 35 -31 40 -41 40 -80 0 -35 -6 -48 -28 -68
-27 -23 -33 -23 -147 -20 -117 3 -120 4 -144 31 -17 20 -24 40 -24 70 l0 41
-25 -35 c-67 -91 -166 -130 -275 -109 -71 13 -129 54 -157 110 -22 42 -23 56
-23 267 l0 223 -40 0 c-69 0 -111 63 -80 120 11 20 192 162 220 173 24 9 80 8
100 -3z m989 -19 c11 -11 23 -40 26 -64 l7 -44 43 42 c65 63 107 80 195 80 60
0 85 -5 123 -25 128 -65 207 -223 207 -412 0 -208 -77 -360 -217 -429 -66 -32
-201 -34 -253 -3 -50 29 -80 78 -80 131 0 38 5 50 35 80 33 33 36 34 93 27 45
-5 66 -2 90 10 85 44 118 183 69 290 -31 68 -72 96 -138 96 -54 0 -118 -40
-144 -90 -24 -46 -34 -156 -35 -361 l0 -186 30 -7 c63 -12 99 -82 71 -135 -9
-16 -179 -168 -245 -219 -33 -26 -75 -28 -116 -7 -60 31 -66 93 -17 169 l32
50 3 357 3 357 -38 7 c-53 9 -83 40 -83 85 0 56 12 69 199 197 43 30 112 32
140 4z m2198 -30 c148 -70 243 -235 243 -424 0 -275 -230 -496 -466 -447 -187
39 -313 193 -331 407 -19 228 126 452 319 493 72 15 164 4 235 -29z m903 3
c76 -22 134 -61 162 -109 22 -38 23 -52 28 -293 l5 -253 42 -40 c51 -48 59
-74 40 -122 -19 -44 -57 -57 -170 -57 -64 0 -139 16 -149 32 -1 2 -4 86 -7
188 l-6 185 -60 -3 c-144 -6 -236 -79 -189 -149 17 -27 26 -27 131 -7 27 5 37
1 64 -25 28 -29 31 -36 26 -78 -6 -56 -31 -91 -88 -123 -38 -22 -56 -25 -139
-25 -105 0 -148 14 -201 68 -54 53 -74 104 -74 187 0 87 20 132 82 192 76 73
194 115 356 125 l97 6 0 34 c0 40 -23 88 -45 97 -9 3 -36 6 -59 6 -34 0 -57
-10 -121 -52 -103 -67 -159 -76 -205 -30 -53 54 -36 136 41 192 102 73 287 96
439 54z m1835 -12 c143 -56 236 -185 239 -332 1 -73 -18 -118 -67 -154 -27
-20 -43 -21 -248 -24 -162 -3 -219 -7 -219 -15 0 -28 52 -86 95 -107 66 -32
127 -23 214 30 77 46 124 52 160 19 92 -86 14 -225 -159 -285 -77 -26 -216
-25 -287 3 -156 62 -252 201 -268 393 -21 233 123 448 325 490 57 11 163 3
215 -18z m623 2 c12 -8 27 -34 33 -59 l11 -45 29 40 c59 81 144 103 223 57
108 -60 122 -267 24 -340 -69 -52 -151 -23 -163 57 -9 58 -17 68 -51 64 -35
-4 -51 -33 -64 -115 -13 -75 -13 -275 0 -307 5 -14 27 -34 48 -45 52 -27 67
-47 67 -93 0 -32 -7 -45 -29 -65 -28 -24 -29 -24 -221 -21 -216 3 -228 7 -241
74 -8 44 13 77 67 104 22 12 44 32 49 46 6 14 10 102 10 195 l0 169 -35 0
c-66 0 -106 71 -75 130 10 19 157 129 207 155 36 19 83 19 111 -1z"/>
<path d="M5344 4350 c-36 -14 -83 -79 -100 -137 -34 -115 2 -284 70 -328 125
-82 249 56 233 261 -11 154 -102 245 -203 204z"/>
<path d="M8099 4329 c-44 -12 -92 -60 -114 -111 l-15 -38 135 0 c122 0 137 2
155 20 23 23 25 39 8 75 -21 47 -101 72 -169 54z"/>
</g>
</svg>
